<?xml version="1.0" encoding="utf-8"?>
<!-- Generator: Adobe Illustrator 27.3.1, SVG Export Plug-In . SVG Version: 6.00 Build 0)  -->
<svg version="1.1" id="Layer_1" xmlns="http://www.w3.org/2000/svg" xmlns:xlink="http://www.w3.org/1999/xlink" x="0px" y="0px"
	 viewBox="0 0 775.1 777.2" style="enable-background:new 0 0 775.1 777.2;" xml:space="preserve">
<style type="text/css">
	.st0{fill:#0A0A09;}
</style>
<g>
	<path class="st0" d="M697.6,755.6c-6.8-0.3-13.1-2-18.9-4.8c-5-2.5-9-5.3-12.4-8.6c-44-43.3-88.2-87.7-131-130.6
		c-22.8-22.8-46.3-46.4-69.5-69.6c-1.2-1.2-2.3-1.7-3.6-1.7c-0.4,0-0.9,0-1.4,0.1c-8,1.5-15.2,4.6-21.3,7.5
		c-6.4,3.1-12.9,6.5-19.1,9.7c-3.8,2-7.7,4.1-11.5,6c-12.8,6.5-24.7,10.6-36.4,12.5c-3,0.5-6,1.3-9.1,2.1c-2.5,0.7-5.2,1.4-7.8,1.9
		c-8.2,1.6-16.2,3.2-24.4,3.9c-1.4,0.1-2.9,0.3-4.3,0.4c-3.6,0.4-7.4,0.8-11.1,0.9c-1.8,0-3.5,0.1-5.3,0.2c-2.4,0.1-5,0.2-7.5,0.2
		c-0.6,0-1.3,0-1.9,0c-7.2-0.2-14.5-0.6-22.4-1.2c-8.4-0.7-16.8-2-23.9-3.2c-7.6-1.3-15.8-3.1-25-5.7c-12.4-3.4-25.1-7.9-37.6-13.2
		c-7.6-3.2-15.4-7-23.3-11.3c-12.6-6.8-24.5-14.4-35.2-22.5c-8.2-6.2-15.5-12.3-22.5-18.7c-12.3-11.2-23.6-23.8-33.7-37.3
		c-9.7-13.1-18.3-27.3-25.3-42.3c-5.1-10.9-9.5-22.3-13-33.9c-3.8-12.6-6.4-22.9-8.2-32.3c-1.4-7.3-2.5-13.4-3.3-19.7
		c-1-7.6-1.9-15.1-2.6-22.4c-0.3-3.5-0.4-7-0.5-10.3c-0.1-1.8-0.1-3.5-0.2-5.3c0-0.3,0-0.5,0-0.8l-0.3-0.3V284l0-0.2
		c0.5-3.3,0.6-6.8,0.6-10.2l0-0.6c0.2-8.8,1.2-17.2,2.2-24.4c2.3-16.5,5.5-31.5,9.7-46c4.8-16.4,10.8-32.1,18-46.9
		c5.3-11,11.8-22.2,19.1-33.1c5.5-8.2,11.7-16.3,19-24.8c5.5-6.4,12.1-12.8,20.3-19.5c10.4-8.5,21.6-16.4,33.3-23.2
		c9.3-5.4,19.3-10.4,30.7-15.3c15-6.4,30.7-11.5,48.2-15.7c11.3-2.7,21.5-4.6,31.3-5.8l1.9-0.2c8.6-1.1,17.6-2.2,26.5-2.2l0.8,0
		c6.3-0.2,12.8-0.2,19.3-0.2c6.5,0,13.1,0.1,19.7,0.2c7.6,0.1,15.2,1,22.5,1.7l2,0.2c6.9,0.7,14.4,1.8,22.7,3.3c5.9,1,12,2.4,18,4.1
		c12.1,3.3,22.7,6.8,32.3,10.7c15.9,6.5,31,14.2,44.7,23c11.8,7.6,23.2,16.1,33.8,25.5c11.7,10.4,22.4,21.6,31.8,33.5
		c6.4,8.1,12.7,17.2,19.8,28.6c9.4,15.3,16.8,29.4,22.4,43.4c4.5,11.1,8.4,23.2,11.4,35.7c2.7,11,4.7,22.2,6,33.3
		c1.1,8.8,1.7,16.2,1.7,23.7c0,4.4,0,8.9,0,13.3l0,5.6c0,4.4-0.4,8.8-0.8,13.1c-0.2,1.7-0.3,3.4-0.4,5c-0.3,3.8-0.8,7.6-1.3,11.3
		l-0.3,2.2c-1.2,9.1-3.1,18.5-5.6,28.7c-2,8.2-4.5,16.4-7.3,24.6c-4.5,12.8-9.8,25.2-15.8,36.9c-5,9.7-10.5,19-16.4,27.7
		c-0.4,0.6-0.4,0.8-0.4,0.8c0,0,0.1,0.2,0.4,0.5c0.5,0.5,1,1,1.5,1.4c0.2,0.2,0.4,0.4,0.6,0.6l36.6,36.6
		c41.3,41.3,82.5,82.5,123.7,123.8c2,2,4,4,6,6.1c4.4,4.5,8.8,9.1,13.5,13.3l1.7,1.6c5,4.6,10.2,9.4,14.9,14.6
		c6.3,6.9,14,16.5,17.9,28.8c1,3.2,1.3,6.5,1.7,9.6l0.1,1v13.5l-0.1,0.4c-0.2,0.7-0.2,1.5-0.2,2.4c0,1,0,2.1-0.3,3.2
		c-2.5,11.4-8.6,21.5-17.9,30c-7.9,7.2-17.6,12.3-28.9,15.3c-1.9,0.5-3.7,0.6-5.4,0.7c-1.4,0.1-2.7,0.2-3.9,0.4l-0.3,0.1
		L697.6,755.6z M303.9,97.6c-5.9,0-11.9,0.2-17.7,0.7c-0.7,0.1-1.3,0.1-2,0.1c-1.3,0.1-2.6,0.1-3.7,0.4c-2.1,0.4-4.3,0.7-6.3,0.9
		c-2.2,0.3-4.3,0.5-6.4,1c-1,0.2-1.9,0.4-2.9,0.6c-2.3,0.5-4.8,0.9-7.1,1.5c-3.7,0.8-7.7,1.9-12.3,3.2c-6.9,2-13.8,4.5-21.2,7.6
		c-6.3,2.7-12.8,5.9-19.4,9.6c-8.6,4.9-16.2,10-23,15.5c-15.4,12.4-28.9,26.8-40.1,42.8c-5.7,8.1-10.8,16.6-15.1,25.4
		c-3,6.1-5.8,12.7-8.3,19.5c-2.6,7-4.9,14.5-7.2,23.7c-1.2,4.9-2.3,10.2-3.2,16.2c-1.2,7.8-1.8,15.1-2,22.1
		c-0.2,6.5,0,13.2,0.6,19.9c0.7,9.3,2.1,18.7,4.2,27.8c1.9,8.4,4.4,16.9,7.7,25.9c3.4,9.1,7.2,17.7,11.4,25.5
		c9,16.8,19.8,31.8,32.3,44.7c8,8.3,16.4,15.7,25,22c7.3,5.4,15.2,10.3,23.3,14.5c7,3.7,14.9,7.2,24.9,11.2
		c5.3,2.1,11.1,3.9,17.7,5.7c5.1,1.4,9.7,2.4,14,3.2c4.4,0.8,8.4,1.5,12.5,1.8c1.3,0.1,2.7,0.2,4,0.4c5.1,0.5,10.4,1,15.6,1
		c0.9,0,1.7,0,2.6,0c0.8,0,1.6,0,2.4,0c0.6,0,1.3,0,1.9,0c0.6,0,1.3,0,1.9,0c1.7,0,3.6,0,5.5-0.3c2.5-0.3,5.1-0.5,7.6-0.8
		c3.3-0.3,6.8-0.6,10.1-1.1c5.4-0.9,11.6-1.9,17.4-3.3c9.1-2.2,18.4-5.1,27.6-8.7c8.3-3.2,16.3-7,23.9-11.2
		c8.9-4.9,17.3-10.4,25.1-16.5c13.7-10.6,25.9-22.9,36-36.6c3.8-5,7.2-10.3,11.1-16.7c4.6-7.5,8.3-14.3,11.2-20.9
		c1.7-3.9,3.9-9,5.9-14.4c2.2-6.2,3.9-11.9,5.2-17.3c1.4-5.7,2.4-10.9,3.3-16c1.3-8.1,2.2-16.6,2.5-25.2c0.3-7.8,0.1-16.1-0.6-24.6
		c-0.6-6.8-1.4-12.8-2.4-18.3c-1.1-5.8-2.2-11-3.4-15.7c-1.6-6.2-3.1-11.2-4.7-15.8c-3.6-10.3-7.8-20.1-12.6-28.9
		c-5.6-10.5-12.3-20.6-19.9-30.2c-9.1-11.4-20.5-22.3-36.1-34.2c-9-7-19-13.1-29.5-18.2c-6.6-3.2-13.5-6.1-20.6-8.6
		c-6.5-2.3-12.5-4-18.3-5.5c-5.3-1.3-10.1-2.4-15-3.1l-0.8-0.1c-4.5-0.6-9.2-1.3-13.7-1.7C316.4,97.9,310.1,97.6,303.9,97.6z"/>
	<path d="M305,18.1c6.5,0,13.1,0.1,19.6,0.2c8.1,0.1,16.2,1.1,24.3,2c7.6,0.8,15.1,1.9,22.5,3.3c6,1,11.9,2.4,17.8,4
		c10.9,3,21.6,6.4,32.1,10.6c15.5,6.3,30.3,13.8,44.3,22.8c11.8,7.5,23,16,33.5,25.3c11.5,10.2,22,21.2,31.5,33.2
		c7.1,9,13.5,18.6,19.6,28.4c8.5,13.8,16.1,28,22.2,43c4.7,11.5,8.4,23.3,11.3,35.4c2.6,10.9,4.6,21.9,6,33
		c0.9,7.8,1.7,15.6,1.7,23.4c0,6.3,0,12.6,0,19c0,6-0.8,11.9-1.2,17.9c-0.3,4.5-1,8.9-1.6,13.3c-1.3,9.6-3.2,19.1-5.5,28.4
		c-2,8.2-4.5,16.3-7.3,24.3c-4.4,12.5-9.6,24.7-15.6,36.6c-4.9,9.5-10.2,18.6-16.2,27.5c-1.2,1.8-1.2,3.2,0.5,4.6
		c0.7,0.6,1.2,1.2,1.9,1.9c53.4,53.5,106.9,106.9,160.3,160.4c6.5,6.5,12.8,13.2,19.5,19.5c5.6,5.2,11.3,10.4,16.5,16
		c7.5,8.2,14,17.1,17.4,27.9c1,3.3,1.3,6.7,1.7,10c0,4.3,0,8.6,0,13c-0.6,1.9-0.1,3.9-0.6,5.9c-2.6,11.5-8.5,20.9-17.1,28.7
		c-8,7.3-17.4,12-27.8,14.8c-3,0.8-6.2,0.5-9.2,1.1c-3,0-6.1,0-9.1,0c-6.3-0.3-12.3-1.8-17.9-4.6c-4.3-2.1-8.3-4.8-11.8-8.1
		C600.8,674.2,534.4,607,467.6,540.3c-1.7-1.7-3.4-2.4-5.4-2.4c-0.6,0-1.2,0.1-1.9,0.2c-7.7,1.4-14.9,4.3-21.9,7.7
		c-10.4,4.9-20.4,10.6-30.7,15.8c-11.3,5.8-23.1,10.2-35.7,12.3c-5.8,1-11.3,3-17,4.1c-8,1.6-16,3.1-24.1,3.9
		c-5.1,0.5-10.1,1.2-15.3,1.3c-4.2,0.1-8.5,0.4-12.7,0.4c-0.6,0-1.3,0-1.9,0c-7.4-0.2-14.8-0.6-22.2-1.2c-8-0.7-15.9-1.9-23.7-3.2
		c-8.3-1.4-16.6-3.4-24.8-5.6c-12.7-3.5-25.1-8-37.3-13.1c-7.9-3.4-15.5-7.1-23.1-11.2c-12.2-6.6-23.9-14-34.9-22.3
		c-7.7-5.8-15.2-12-22.3-18.5c-12.3-11.3-23.4-23.6-33.4-37c-9.8-13.1-18.1-27.1-25.1-41.9c-5.1-10.9-9.4-22.1-12.9-33.5
		c-3.2-10.6-6.1-21.2-8.1-32.1c-1.2-6.5-2.4-13-3.3-19.6c-1-7.4-1.9-14.9-2.6-22.3c-0.5-5.1-0.5-10.4-0.7-15.5
		c0-0.6,0.2-1.3-0.2-1.9c0-6.7,0-13.4,0-20.2c0.6-3.7,0.6-7.5,0.7-11.2c0.1-8.1,1-16.1,2.2-24.1c2.1-15.4,5.2-30.7,9.6-45.7
		c4.7-16,10.6-31.5,17.8-46.5c5.5-11.4,11.9-22.3,18.9-32.8c5.8-8.6,12.1-16.7,18.8-24.5c6.1-7,12.9-13.3,20-19.2
		c10.4-8.6,21.4-16.2,33-23c9.8-5.7,20-10.7,30.4-15.2c15.5-6.6,31.5-11.7,47.8-15.6c10.3-2.4,20.6-4.5,31.1-5.8
		c9.3-1.2,18.7-2.4,28.1-2.4c0.3,0,0.5,0,0.8,0C292.1,18.1,298.6,18.1,305,18.1 M299.1,494.5c0.9,0,1.8,0,2.6,0c0.8,0,1.6,0,2.3,0
		c1.3,0,2.5,0,3.8,0c1.9,0,3.9,0,5.8-0.3c5.9-0.8,11.9-0.9,17.8-1.9c5.9-1,11.8-2,17.6-3.4c9.5-2.2,18.8-5.2,27.9-8.8
		c8.3-3.2,16.4-7,24.1-11.3c8.9-4.9,17.4-10.5,25.4-16.7c13.8-10.7,26-23,36.5-37c4.1-5.4,7.7-11.1,11.2-16.9
		c4.2-6.8,8.1-13.8,11.4-21.2c2.1-4.8,4.2-9.6,5.9-14.5c2.1-5.8,3.9-11.6,5.3-17.6c1.3-5.4,2.4-10.7,3.3-16.2
		c1.4-8.5,2.2-17,2.6-25.5c0.3-8.3,0.1-16.6-0.6-24.9c-0.5-6.2-1.3-12.4-2.4-18.5c-1-5.3-2.1-10.6-3.5-15.8
		c-1.4-5.4-2.9-10.8-4.8-16c-3.5-10-7.7-19.8-12.7-29.2c-5.8-10.8-12.5-21-20.2-30.5c-10.6-13.3-23.2-24.4-36.6-34.7
		c-9.3-7.2-19.4-13.3-30-18.5c-6.8-3.3-13.7-6.2-20.8-8.7c-6.1-2.1-12.3-4-18.5-5.5c-5-1.2-10.1-2.4-15.2-3.1
		c-4.9-0.7-9.8-1.4-14.7-1.8c-6.3-0.5-12.6-0.8-18.9-0.8c-6,0-12,0.2-17.9,0.7c-2,0.2-4,0.1-6,0.5c-4.2,0.8-8.5,1-12.8,1.9
		c-3.4,0.7-6.7,1.3-10.1,2.1c-4.2,1-8.3,2.1-12.5,3.3c-7.3,2.1-14.5,4.8-21.5,7.7c-6.7,2.8-13.3,6.1-19.6,9.8
		c-8.2,4.6-16,9.8-23.3,15.7c-15.6,12.5-29.1,27-40.6,43.3c-5.8,8.2-10.9,16.8-15.3,25.8c-3.2,6.4-5.9,13-8.4,19.7
		c-2.9,7.8-5.2,15.8-7.3,23.9c-1.4,5.4-2.4,10.9-3.2,16.4c-1.1,7.4-1.8,14.9-2,22.4c-0.2,6.7,0,13.4,0.6,20.1
		c0.8,9.5,2.2,18.9,4.2,28.1c2,8.9,4.7,17.6,7.8,26.2c3.3,8.9,7.1,17.5,11.5,25.9c8.9,16.5,19.6,31.7,32.7,45.2
		c7.8,8.1,16.2,15.6,25.4,22.3c7.5,5.5,15.4,10.4,23.6,14.7c8.1,4.3,16.6,7.9,25.2,11.3c5.8,2.3,11.8,4.2,17.9,5.8
		c4.7,1.3,9.4,2.4,14.2,3.2c4.2,0.8,8.5,1.5,12.8,1.9C285.8,493.7,292.4,494.5,299.1,494.5 M305,13.1c-6.5,0-13,0.1-19.4,0.2
		c-0.2,0-0.5,0-0.7,0c-9.1,0-18.1,1.1-26.8,2.2l-1.9,0.2c-9.9,1.2-20.2,3.2-31.6,5.9C207,25.8,191.1,31,176,37.5
		c-11.5,4.9-21.6,10-31,15.5c-11.9,6.9-23.2,14.8-33.7,23.5c-8.3,6.8-15,13.3-20.6,19.8c-7.4,8.6-13.6,16.8-19.2,25
		c-7.4,11-13.9,22.3-19.3,33.4c-7.2,14.9-13.3,30.8-18.1,47.3c-4.3,14.6-7.5,29.8-9.8,46.4c-1,7.2-2.1,15.8-2.2,24.7l0,0.6
		c-0.1,3.5-0.1,6.7-0.6,9.9l-0.1,0.4v0.4v20.2v1.7l0.2,0.3c0,0,0,0,0,0c0.1,1.7,0.1,3.5,0.2,5.3c0.1,3.4,0.2,7,0.5,10.5
		c0.7,7.4,1.5,15,2.6,22.6c0.9,6.3,2,12.5,3.4,19.8c1.8,9.6,4.4,19.9,8.3,32.6c3.5,11.7,8,23.2,13.1,34.2
		c7.1,15.2,15.8,29.6,25.6,42.8c10.2,13.6,21.6,26.3,34,37.7c7,6.4,14.5,12.6,22.7,18.8c10.8,8.2,22.8,15.9,35.6,22.7
		c8,4.3,15.9,8.1,23.5,11.4c12.6,5.4,25.4,9.9,37.9,13.4c9.3,2.6,17.6,4.5,25.3,5.7c7.2,1.2,15.6,2.5,24.1,3.2
		c7.9,0.7,15.2,1.1,22.5,1.3c0.7,0,1.3,0,2,0c2.6,0,5.1-0.1,7.6-0.2c1.7-0.1,3.5-0.2,5.2-0.2c3.9-0.1,7.7-0.5,11.4-0.9
		c1.4-0.2,2.8-0.3,4.3-0.4c8.3-0.8,16.4-2.3,24.6-3.9c2.7-0.5,5.4-1.3,8-2c3.1-0.8,5.9-1.6,8.8-2.1c11.9-2,24.1-6.1,37.1-12.8
		c3.9-2,7.8-4.1,11.6-6.1c6.2-3.3,12.6-6.7,19-9.7c5.9-2.8,13-5.8,20.7-7.3c0.4-0.1,0.7-0.1,1-0.1c0.4,0,0.9,0,1.9,1
		c23.2,23.1,46.7,46.7,69.5,69.5c42.8,43,87.1,87.4,131.1,130.7c3.6,3.5,7.9,6.5,13.1,9.1c6.1,3,12.8,4.7,19.9,5.1l0.1,0h0.1h9.1
		h0.5l0.5-0.1c1-0.2,2.2-0.3,3.5-0.4c1.8-0.1,3.8-0.2,5.9-0.8c11.7-3.1,21.7-8.4,29.9-15.9c9.7-8.8,16-19.4,18.7-31.3
		c0.3-1.4,0.3-2.7,0.3-3.8c0-0.6,0-1.4,0.1-1.6l0.2-0.8v-0.8v-13v-0.3l0-0.3l-0.1-0.9c-0.3-3.3-0.7-6.6-1.8-10.1
		c-4-12.8-11.9-22.6-18.4-29.7c-4.8-5.3-10-10.1-15.1-14.8l-1.7-1.6c-4.6-4.2-9-8.8-13.4-13.2c-2-2-4-4.1-6-6.1
		c-41.6-41.6-83.8-83.9-124.7-124.8l-35.6-35.6c-0.2-0.2-0.3-0.4-0.5-0.5c-0.2-0.2-0.4-0.4-0.5-0.6c5.7-8.5,11-17.6,15.9-27
		c6.1-11.8,11.4-24.3,15.9-37.2c2.9-8.2,5.3-16.5,7.4-24.8c2.6-10.3,4.4-19.7,5.7-29l0.3-2.2c0.5-3.7,1-7.5,1.3-11.4
		c0.1-1.7,0.3-3.4,0.4-5c0.4-4.3,0.8-8.8,0.8-13.3c0-1.9,0-3.8,0-5.7c0-4.3,0-8.8,0-13.2c0-7.7-0.7-15.2-1.7-24
		c-1.3-11.2-3.4-22.5-6.1-33.6c-3.1-12.7-7-24.8-11.5-36.1c-5.7-14-13.1-28.4-22.6-43.7c-7.1-11.5-13.4-20.7-19.9-28.9
		c-9.5-12-20.3-23.4-32.1-33.8c-10.7-9.4-22.2-18.1-34.1-25.7c-13.9-8.9-29.1-16.7-45.1-23.2c-9.7-3.9-20.4-7.5-32.6-10.8
		c-6.1-1.7-12.2-3.1-18.2-4.1c-8.4-1.5-15.9-2.6-22.9-3.3l-2-0.2c-7.4-0.8-15.1-1.6-22.8-1.8C318.2,13.1,311.5,13.1,305,13.1
		L305,13.1z M299.1,489.5c-5.1,0-10.1-0.5-15.4-1c-1.3-0.1-2.7-0.2-4-0.4c-4-0.3-8-1-12.3-1.8c-4.2-0.8-8.7-1.8-13.8-3.1
		c-6.5-1.7-12.2-3.6-17.4-5.6c-9.9-3.9-17.8-7.4-24.7-11c-8-4.2-15.7-9.1-23-14.3c-8.5-6.2-16.8-13.5-24.7-21.7
		c-12.3-12.7-23-27.6-31.9-44.1c-4.1-7.7-7.9-16.2-11.2-25.2c-3.3-9-5.8-17.3-7.6-25.6c-2-9-3.4-18.3-4.1-27.5
		c-0.5-6.6-0.7-13.2-0.6-19.6c0.2-6.9,0.8-14.1,2-21.8c0.9-5.9,1.9-11.2,3.1-15.9c2.3-9,4.5-16.5,7.1-23.4
		c2.5-6.7,5.3-13.2,8.2-19.2c4.3-8.7,9.3-17.2,14.9-25.1c11.1-15.8,24.5-30.1,39.7-42.3c6.7-5.4,14.1-10.4,22.6-15.2
		c6.4-3.7,12.9-6.9,19.1-9.5c7.3-3.1,14.2-5.5,21-7.5c4.5-1.3,8.5-2.4,12.2-3.2c2.3-0.5,4.7-1,7.1-1.5c1-0.2,1.9-0.4,2.9-0.6
		c2-0.4,4-0.7,6.2-0.9c2.1-0.3,4.3-0.5,6.5-1c1-0.2,2.1-0.2,3.4-0.3c0.7,0,1.4-0.1,2.1-0.1c5.8-0.5,11.7-0.7,17.5-0.7
		c6.1,0,12.3,0.3,18.5,0.8c4.5,0.4,9.1,1,13.6,1.7l0.8,0.1c4.8,0.7,9.5,1.8,14.7,3.1c5.7,1.4,11.6,3.2,18.1,5.4
		c6.9,2.4,13.7,5.3,20.3,8.4c10.4,5.1,20.2,11.1,29.1,18c15.4,11.9,26.8,22.6,35.7,33.8c7.5,9.4,14.1,19.4,19.7,29.8
		c4.7,8.7,8.9,18.3,12.4,28.5c1.6,4.5,3.1,9.5,4.6,15.6c1.2,4.7,2.3,9.7,3.4,15.5c1,5.4,1.8,11.3,2.4,18c0.7,8.4,0.9,16.6,0.6,24.3
		c-0.3,8.5-1.2,16.9-2.5,24.9c-0.8,5-1.9,10.2-3.2,15.8c-1.3,5.3-3,10.9-5.2,17c-1.5,4.1-3.3,8.5-5.8,14.2
		c-2.9,6.5-6.5,13.2-11,20.6c-3.1,5.1-6.8,11-11,16.5c-10,13.4-22,25.6-35.6,36.1c-7.7,5.9-16,11.4-24.8,16.3
		c-7.4,4.1-15.3,7.8-23.6,11c-9.1,3.6-18.3,6.4-27.3,8.6c-5.8,1.4-11.9,2.4-17.3,3.3c-3.2,0.5-6.5,0.8-9.9,1.1
		c-2.5,0.2-5.1,0.4-7.7,0.8c-1.8,0.2-3.6,0.3-5.2,0.3c-0.6,0-1.2,0-1.9,0c-0.6,0-1.3,0-1.9,0c-1,0-1.7,0-2.5,0
		C300.8,489.5,299.9,489.5,299.1,489.5L299.1,489.5z"/>
</g>
</svg>
